<svg width="53" height="54" viewBox="0 0 53 54" fill="none" xmlns="http://www.w3.org/2000/svg">
<mask id="path-1-outside-1" maskUnits="userSpaceOnUse" x="-0.996094" y="-0.773926" width="55" height="55" fill="black">
<rect fill="white" x="-0.996094" y="-0.773926" width="55" height="55"/>
<path d="M53.0016 35.8158C53.0016 36.8336 52.6008 37.7866 51.8737 38.5083C51.2212 39.156 50.3823 39.5262 49.5341 39.6002C50.9882 41.0899 50.9789 43.4771 49.4968 44.9483C48.7977 45.6515 47.8843 46.0124 46.9522 46.0586C47.2598 46.6138 47.4275 47.243 47.4275 47.8999C47.4275 48.9177 47.0267 49.8708 46.2997 50.5925C44.8456 52.0359 42.3196 52.0267 40.8748 50.5925L40.1011 49.8245C40.0172 50.7035 39.6351 51.5178 38.9919 52.147C37.5378 53.5904 35.0118 53.5811 33.567 52.147L24.7026 43.3291C24.7865 43.6066 24.8517 43.8657 24.8797 44.097C25.1034 45.9568 24.2179 47.7982 22.6986 48.5754C21.5334 49.1861 20.2285 48.9918 19.2031 48.0665C15.7823 44.9853 9.57439 39.1931 6.41452 35.0385C2.49032 29.8662 4.774 26.0263 5.89254 24.6662L0.206641 19.022C-0.063672 18.7536 -0.063672 18.3095 0.206641 18.0412C0.346458 17.9024 0.52356 17.8376 0.700661 17.8376C0.877763 17.8376 1.05486 17.9024 1.19468 18.0412L7.34663 24.148C7.47713 24.2868 7.5517 24.4719 7.5517 24.6569C7.54238 24.8512 7.45849 25.027 7.31867 25.1566C7.15089 25.3046 3.37583 28.7281 7.53306 34.2058C10.6184 38.2678 16.761 43.9953 20.1446 47.0394C20.9089 47.7241 21.608 47.5853 22.0647 47.354C22.9129 46.9191 23.6773 45.7255 23.5002 44.2728C23.3324 42.9034 21.6453 40.2849 19.6599 38.3233C15.95 34.6407 15.95 34.6407 16.4441 34.1503C16.5746 34.0207 16.7517 33.9467 16.9381 33.9467C17.1245 33.9467 17.3016 34.0207 17.4321 34.1503C17.4508 34.1688 17.7211 34.4371 20.6479 37.3425L34.5644 51.1569C35.4778 52.0729 37.0904 52.0729 38.0132 51.1569C38.4699 50.7035 38.7309 50.0928 38.7309 49.4451C38.7309 48.7975 38.4792 48.196 38.0132 47.7334L28.5709 38.3696C28.3006 38.1012 28.3006 37.6571 28.5709 37.3888C28.8412 37.1204 29.2886 37.1204 29.5589 37.3888L41.8721 49.6024C42.7856 50.5185 44.3982 50.5185 45.321 49.6024C45.7777 49.1491 46.0387 48.5384 46.0387 47.8907C46.0387 47.243 45.787 46.6323 45.321 46.1789L44.0906 44.9575C44.0812 44.9483 44.0812 44.9483 44.0719 44.939L41.0426 41.9319L35.8786 36.8058L35.8693 36.7966L33.0077 33.956C32.7374 33.6876 32.7374 33.2435 33.0077 32.9752C33.278 32.7068 33.7255 32.7068 33.9958 32.9752L38.9267 37.8699L45.1066 44.0045C46.0667 44.902 47.5767 44.8928 48.5088 43.9582C49.4595 43.0145 49.4595 41.4785 48.5088 40.5347L46.4768 38.5176C46.4675 38.5083 46.4675 38.5083 46.4581 38.4991L37.4446 29.5516C37.4166 29.5239 37.3887 29.4869 37.3607 29.4499C36.4566 30.0605 35.2728 30.5602 33.7161 30.7823C30.4258 31.2357 26.2126 31.1154 22.5121 30.9396C21.4868 30.8933 20.7038 30.3104 20.4056 29.3943C20.0513 28.2933 20.4708 26.9886 21.4216 26.1559H13.8341C12.2962 26.1559 11.0471 24.916 11.0471 23.3893C11.0471 22.8896 11.1869 22.4177 11.42 22.0106H11.131C9.59303 22.0106 8.344 20.7707 8.344 19.244C8.344 18.1059 9.04308 17.1251 10.0311 16.6995C9.70488 16.2461 9.51846 15.691 9.51846 15.0988C9.51846 13.7294 10.5251 12.5913 11.8394 12.3785C11.5878 11.9621 11.4479 11.4809 11.4479 10.9628C11.4479 9.43607 12.697 8.19619 14.235 8.19619H24.8051L17.9448 1.40465C17.6745 1.13632 17.6745 0.692184 17.9448 0.423855C18.0846 0.285061 18.2617 0.220291 18.4388 0.220291C18.6159 0.220291 18.793 0.285061 18.9328 0.423855L26.7346 8.16844C26.7532 8.18694 26.7626 8.1962 26.7812 8.2147H34.061C35.7761 8.2147 37.398 8.8809 38.6097 10.0838L39.8308 11.2959H46.1878C46.57 11.2959 46.8869 11.6105 46.8869 11.9898C46.8869 12.3692 46.57 12.6838 46.1878 12.6838H39.5419C39.3554 12.6838 39.1783 12.6098 39.0478 12.4802L37.6217 11.0646C36.6709 10.1208 35.4033 9.60262 34.061 9.60262H14.2256C13.4613 9.60262 12.8368 10.2226 12.8368 10.9813C12.8368 11.74 13.4613 12.36 14.2256 12.36H21.1792H22.7079C23.09 12.36 23.407 12.6745 23.407 13.0539C23.407 13.4333 23.09 13.7479 22.7079 13.7479H21.1792H14.2256H12.2962C11.5318 13.7479 10.9073 14.3678 10.9073 15.1265C10.9073 15.8853 11.5318 16.5052 12.2962 16.5052H19.9954H22.6986C23.0807 16.5052 23.3976 16.8198 23.3976 17.1992C23.3976 17.5785 23.0807 17.8931 22.6986 17.8931H19.9954H12.2962H11.1217C10.3574 17.8931 9.73285 18.5131 9.73285 19.2718C9.73285 20.0305 10.3574 20.6505 11.1217 20.6505H13.8248H22.7079C23.09 20.6505 23.407 20.965 23.407 21.3444C23.407 21.7238 23.09 22.0384 22.7079 22.0384H13.8248C13.0605 22.0384 12.436 22.6583 12.436 23.417C12.436 24.1758 13.0605 24.7957 13.8248 24.7957H26.9117H29.9318C30.3139 24.7957 30.6308 25.1103 30.6308 25.4897C30.6308 25.869 30.3139 26.1836 29.9318 26.1836H26.9117C24.9077 26.1836 23.0248 26.6833 22.4376 27.1459C21.7571 27.6733 21.5707 28.4968 21.7292 29.0057C21.8503 29.3758 22.13 29.5701 22.5681 29.5887C26.194 29.7645 30.3419 29.8847 33.5111 29.4406C37.9479 28.8207 38.6936 25.4989 38.7216 25.3601C38.7868 25.0363 39.0758 24.7957 39.4114 24.7957H48.7418C49.124 24.7957 49.4409 25.1103 49.4409 25.4897C49.4409 25.869 49.124 26.1836 48.7418 26.1836H44.8642L51.8737 33.151C52.6008 33.8449 53.0016 34.798 53.0016 35.8158ZM50.8857 34.104L42.8788 26.1559H39.9333C39.7283 26.7388 39.2902 27.6733 38.414 28.5708L38.4233 28.5801L40.0452 30.1901C40.0452 30.1901 40.0452 30.1901 40.0545 30.1901L47.4928 37.5738C48.4529 38.4621 49.9536 38.4528 50.8857 37.5276C51.3424 37.0742 51.6034 36.4635 51.6034 35.8158C51.6034 35.1681 51.3517 34.5574 50.8857 34.104Z"/>
</mask>
<path d="M53.0016 35.8158C53.0016 36.8336 52.6008 37.7866 51.8737 38.5083C51.2212 39.156 50.3823 39.5262 49.5341 39.6002C50.9882 41.0899 50.9789 43.4771 49.4968 44.9483C48.7977 45.6515 47.8843 46.0124 46.9522 46.0586C47.2598 46.6138 47.4275 47.243 47.4275 47.8999C47.4275 48.9177 47.0267 49.8708 46.2997 50.5925C44.8456 52.0359 42.3196 52.0267 40.8748 50.5925L40.1011 49.8245C40.0172 50.7035 39.6351 51.5178 38.9919 52.147C37.5378 53.5904 35.0118 53.5811 33.567 52.147L24.7026 43.3291C24.7865 43.6066 24.8517 43.8657 24.8797 44.097C25.1034 45.9568 24.2179 47.7982 22.6986 48.5754C21.5334 49.1861 20.2285 48.9918 19.2031 48.0665C15.7823 44.9853 9.57439 39.1931 6.41452 35.0385C2.49032 29.8662 4.774 26.0263 5.89254 24.6662L0.206641 19.022C-0.063672 18.7536 -0.063672 18.3095 0.206641 18.0412C0.346458 17.9024 0.52356 17.8376 0.700661 17.8376C0.877763 17.8376 1.05486 17.9024 1.19468 18.0412L7.34663 24.148C7.47713 24.2868 7.5517 24.4719 7.5517 24.6569C7.54238 24.8512 7.45849 25.027 7.31867 25.1566C7.15089 25.3046 3.37583 28.7281 7.53306 34.2058C10.6184 38.2678 16.761 43.9953 20.1446 47.0394C20.9089 47.7241 21.608 47.5853 22.0647 47.354C22.9129 46.9191 23.6773 45.7255 23.5002 44.2728C23.3324 42.9034 21.6453 40.2849 19.6599 38.3233C15.95 34.6407 15.95 34.6407 16.4441 34.1503C16.5746 34.0207 16.7517 33.9467 16.9381 33.9467C17.1245 33.9467 17.3016 34.0207 17.4321 34.1503C17.4508 34.1688 17.7211 34.4371 20.6479 37.3425L34.5644 51.1569C35.4778 52.0729 37.0904 52.0729 38.0132 51.1569C38.4699 50.7035 38.7309 50.0928 38.7309 49.4451C38.7309 48.7975 38.4792 48.196 38.0132 47.7334L28.5709 38.3696C28.3006 38.1012 28.3006 37.6571 28.5709 37.3888C28.8412 37.1204 29.2886 37.1204 29.5589 37.3888L41.8721 49.6024C42.7856 50.5185 44.3982 50.5185 45.321 49.6024C45.7777 49.1491 46.0387 48.5384 46.0387 47.8907C46.0387 47.243 45.787 46.6323 45.321 46.1789L44.0906 44.9575C44.0812 44.9483 44.0812 44.9483 44.0719 44.939L41.0426 41.9319L35.8786 36.8058L35.8693 36.7966L33.0077 33.956C32.7374 33.6876 32.7374 33.2435 33.0077 32.9752C33.278 32.7068 33.7255 32.7068 33.9958 32.9752L38.9267 37.8699L45.1066 44.0045C46.0667 44.902 47.5767 44.8928 48.5088 43.9582C49.4595 43.0145 49.4595 41.4785 48.5088 40.5347L46.4768 38.5176C46.4675 38.5083 46.4675 38.5083 46.4581 38.4991L37.4446 29.5516C37.4166 29.5239 37.3887 29.4869 37.3607 29.4499C36.4566 30.0605 35.2728 30.5602 33.7161 30.7823C30.4258 31.2357 26.2126 31.1154 22.5121 30.9396C21.4868 30.8933 20.7038 30.3104 20.4056 29.3943C20.0513 28.2933 20.4708 26.9886 21.4216 26.1559H13.8341C12.2962 26.1559 11.0471 24.916 11.0471 23.3893C11.0471 22.8896 11.1869 22.4177 11.42 22.0106H11.131C9.59303 22.0106 8.344 20.7707 8.344 19.244C8.344 18.1059 9.04308 17.1251 10.0311 16.6995C9.70488 16.2461 9.51846 15.691 9.51846 15.0988C9.51846 13.7294 10.5251 12.5913 11.8394 12.3785C11.5878 11.9621 11.4479 11.4809 11.4479 10.9628C11.4479 9.43607 12.697 8.19619 14.235 8.19619H24.8051L17.9448 1.40465C17.6745 1.13632 17.6745 0.692184 17.9448 0.423855C18.0846 0.285061 18.2617 0.220291 18.4388 0.220291C18.6159 0.220291 18.793 0.285061 18.9328 0.423855L26.7346 8.16844C26.7532 8.18694 26.7626 8.1962 26.7812 8.2147H34.061C35.7761 8.2147 37.398 8.8809 38.6097 10.0838L39.8308 11.2959H46.1878C46.57 11.2959 46.8869 11.6105 46.8869 11.9898C46.8869 12.3692 46.57 12.6838 46.1878 12.6838H39.5419C39.3554 12.6838 39.1783 12.6098 39.0478 12.4802L37.6217 11.0646C36.6709 10.1208 35.4033 9.60262 34.061 9.60262H14.2256C13.4613 9.60262 12.8368 10.2226 12.8368 10.9813C12.8368 11.74 13.4613 12.36 14.2256 12.36H21.1792H22.7079C23.09 12.36 23.407 12.6745 23.407 13.0539C23.407 13.4333 23.09 13.7479 22.7079 13.7479H21.1792H14.2256H12.2962C11.5318 13.7479 10.9073 14.3678 10.9073 15.1265C10.9073 15.8853 11.5318 16.5052 12.2962 16.5052H19.9954H22.6986C23.0807 16.5052 23.3976 16.8198 23.3976 17.1992C23.3976 17.5785 23.0807 17.8931 22.6986 17.8931H19.9954H12.2962H11.1217C10.3574 17.8931 9.73285 18.5131 9.73285 19.2718C9.73285 20.0305 10.3574 20.6505 11.1217 20.6505H13.8248H22.7079C23.09 20.6505 23.407 20.965 23.407 21.3444C23.407 21.7238 23.09 22.0384 22.7079 22.0384H13.8248C13.0605 22.0384 12.436 22.6583 12.436 23.417C12.436 24.1758 13.0605 24.7957 13.8248 24.7957H26.9117H29.9318C30.3139 24.7957 30.6308 25.1103 30.6308 25.4897C30.6308 25.869 30.3139 26.1836 29.9318 26.1836H26.9117C24.9077 26.1836 23.0248 26.6833 22.4376 27.1459C21.7571 27.6733 21.5707 28.4968 21.7292 29.0057C21.8503 29.3758 22.13 29.5701 22.5681 29.5887C26.194 29.7645 30.3419 29.8847 33.5111 29.4406C37.9479 28.8207 38.6936 25.4989 38.7216 25.3601C38.7868 25.0363 39.0758 24.7957 39.4114 24.7957H48.7418C49.124 24.7957 49.4409 25.1103 49.4409 25.4897C49.4409 25.869 49.124 26.1836 48.7418 26.1836H44.8642L51.8737 33.151C52.6008 33.8449 53.0016 34.798 53.0016 35.8158ZM50.8857 34.104L42.8788 26.1559H39.9333C39.7283 26.7388 39.2902 27.6733 38.414 28.5708L38.4233 28.5801L40.0452 30.1901C40.0452 30.1901 40.0452 30.1901 40.0545 30.1901L47.4928 37.5738C48.4529 38.4621 49.9536 38.4528 50.8857 37.5276C51.3424 37.0742 51.6034 36.4635 51.6034 35.8158C51.6034 35.1681 51.3517 34.5574 50.8857 34.104Z" fill="#71976B"/>
<path d="M53.0016 35.8158C53.0016 36.8336 52.6008 37.7866 51.8737 38.5083C51.2212 39.156 50.3823 39.5262 49.5341 39.6002C50.9882 41.0899 50.9789 43.4771 49.4968 44.9483C48.7977 45.6515 47.8843 46.0124 46.9522 46.0586C47.2598 46.6138 47.4275 47.243 47.4275 47.8999C47.4275 48.9177 47.0267 49.8708 46.2997 50.5925C44.8456 52.0359 42.3196 52.0267 40.8748 50.5925L40.1011 49.8245C40.0172 50.7035 39.6351 51.5178 38.9919 52.147C37.5378 53.5904 35.0118 53.5811 33.567 52.147L24.7026 43.3291C24.7865 43.6066 24.8517 43.8657 24.8797 44.097C25.1034 45.9568 24.2179 47.7982 22.6986 48.5754C21.5334 49.1861 20.2285 48.9918 19.2031 48.0665C15.7823 44.9853 9.57439 39.1931 6.41452 35.0385C2.49032 29.8662 4.774 26.0263 5.89254 24.6662L0.206641 19.022C-0.063672 18.7536 -0.063672 18.3095 0.206641 18.0412C0.346458 17.9024 0.52356 17.8376 0.700661 17.8376C0.877763 17.8376 1.05486 17.9024 1.19468 18.0412L7.34663 24.148C7.47713 24.2868 7.5517 24.4719 7.5517 24.6569C7.54238 24.8512 7.45849 25.027 7.31867 25.1566C7.15089 25.3046 3.37583 28.7281 7.53306 34.2058C10.6184 38.2678 16.761 43.9953 20.1446 47.0394C20.9089 47.7241 21.608 47.5853 22.0647 47.354C22.9129 46.9191 23.6773 45.7255 23.5002 44.2728C23.3324 42.9034 21.6453 40.2849 19.6599 38.3233C15.95 34.6407 15.95 34.6407 16.4441 34.1503C16.5746 34.0207 16.7517 33.9467 16.9381 33.9467C17.1245 33.9467 17.3016 34.0207 17.4321 34.1503C17.4508 34.1688 17.7211 34.4371 20.6479 37.3425L34.5644 51.1569C35.4778 52.0729 37.0904 52.0729 38.0132 51.1569C38.4699 50.7035 38.7309 50.0928 38.7309 49.4451C38.7309 48.7975 38.4792 48.196 38.0132 47.7334L28.5709 38.3696C28.3006 38.1012 28.3006 37.6571 28.5709 37.3888C28.8412 37.1204 29.2886 37.1204 29.5589 37.3888L41.8721 49.6024C42.7856 50.5185 44.3982 50.5185 45.321 49.6024C45.7777 49.1491 46.0387 48.5384 46.0387 47.8907C46.0387 47.243 45.787 46.6323 45.321 46.1789L44.0906 44.9575C44.0812 44.9483 44.0812 44.9483 44.0719 44.939L41.0426 41.9319L35.8786 36.8058L35.8693 36.7966L33.0077 33.956C32.7374 33.6876 32.7374 33.2435 33.0077 32.9752C33.278 32.7068 33.7255 32.7068 33.9958 32.9752L38.9267 37.8699L45.1066 44.0045C46.0667 44.902 47.5767 44.8928 48.5088 43.9582C49.4595 43.0145 49.4595 41.4785 48.5088 40.5347L46.4768 38.5176C46.4675 38.5083 46.4675 38.5083 46.4581 38.4991L37.4446 29.5516C37.4166 29.5239 37.3887 29.4869 37.3607 29.4499C36.4566 30.0605 35.2728 30.5602 33.7161 30.7823C30.4258 31.2357 26.2126 31.1154 22.5121 30.9396C21.4868 30.8933 20.7038 30.3104 20.4056 29.3943C20.0513 28.2933 20.4708 26.9886 21.4216 26.1559H13.8341C12.2962 26.1559 11.0471 24.916 11.0471 23.3893C11.0471 22.8896 11.1869 22.4177 11.42 22.0106H11.131C9.59303 22.0106 8.344 20.7707 8.344 19.244C8.344 18.1059 9.04308 17.1251 10.0311 16.6995C9.70488 16.2461 9.51846 15.691 9.51846 15.0988C9.51846 13.7294 10.5251 12.5913 11.8394 12.3785C11.5878 11.9621 11.4479 11.4809 11.4479 10.9628C11.4479 9.43607 12.697 8.19619 14.235 8.19619H24.8051L17.9448 1.40465C17.6745 1.13632 17.6745 0.692184 17.9448 0.423855C18.0846 0.285061 18.2617 0.220291 18.4388 0.220291C18.6159 0.220291 18.793 0.285061 18.9328 0.423855L26.7346 8.16844C26.7532 8.18694 26.7626 8.1962 26.7812 8.2147H34.061C35.7761 8.2147 37.398 8.8809 38.6097 10.0838L39.8308 11.2959H46.1878C46.57 11.2959 46.8869 11.6105 46.8869 11.9898C46.8869 12.3692 46.57 12.6838 46.1878 12.6838H39.5419C39.3554 12.6838 39.1783 12.6098 39.0478 12.4802L37.6217 11.0646C36.6709 10.1208 35.4033 9.60262 34.061 9.60262H14.2256C13.4613 9.60262 12.8368 10.2226 12.8368 10.9813C12.8368 11.74 13.4613 12.36 14.2256 12.36H21.1792H22.7079C23.09 12.36 23.407 12.6745 23.407 13.0539C23.407 13.4333 23.09 13.7479 22.7079 13.7479H21.1792H14.2256H12.2962C11.5318 13.7479 10.9073 14.3678 10.9073 15.1265C10.9073 15.8853 11.5318 16.5052 12.2962 16.5052H19.9954H22.6986C23.0807 16.5052 23.3976 16.8198 23.3976 17.1992C23.3976 17.5785 23.0807 17.8931 22.6986 17.8931H19.9954H12.2962H11.1217C10.3574 17.8931 9.73285 18.5131 9.73285 19.2718C9.73285 20.0305 10.3574 20.6505 11.1217 20.6505H13.8248H22.7079C23.09 20.6505 23.407 20.965 23.407 21.3444C23.407 21.7238 23.09 22.0384 22.7079 22.0384H13.8248C13.0605 22.0384 12.436 22.6583 12.436 23.417C12.436 24.1758 13.0605 24.7957 13.8248 24.7957H26.9117H29.9318C30.3139 24.7957 30.6308 25.1103 30.6308 25.4897C30.6308 25.869 30.3139 26.1836 29.9318 26.1836H26.9117C24.9077 26.1836 23.0248 26.6833 22.4376 27.1459C21.7571 27.6733 21.5707 28.4968 21.7292 29.0057C21.8503 29.3758 22.13 29.5701 22.5681 29.5887C26.194 29.7645 30.3419 29.8847 33.5111 29.4406C37.9479 28.8207 38.6936 25.4989 38.7216 25.3601C38.7868 25.0363 39.0758 24.7957 39.4114 24.7957H48.7418C49.124 24.7957 49.4409 25.1103 49.4409 25.4897C49.4409 25.869 49.124 26.1836 48.7418 26.1836H44.8642L51.8737 33.151C52.6008 33.8449 53.0016 34.798 53.0016 35.8158ZM50.8857 34.104L42.8788 26.1559H39.9333C39.7283 26.7388 39.2902 27.6733 38.414 28.5708L38.4233 28.5801L40.0452 30.1901C40.0452 30.1901 40.0452 30.1901 40.0545 30.1901L47.4928 37.5738C48.4529 38.4621 49.9536 38.4528 50.8857 37.5276C51.3424 37.0742 51.6034 36.4635 51.6034 35.8158C51.6034 35.1681 51.3517 34.5574 50.8857 34.104Z" stroke="#71976B" stroke-width="0.7" mask="url(#path-1-outside-1)"/>
</svg>
