<svg width="44" height="48" viewBox="0 0 44 48" fill="none" xmlns="http://www.w3.org/2000/svg">
<path d="M0.710268 31.6593H0.710268L0.710194 31.6596C0.461031 32.4652 0.602326 33.3219 1.10089 34.0033C1.59979 34.6851 2.38177 35.0759 3.2209 35.0759H6.07314V41.4755C6.07314 42.6264 6.55461 43.737 7.40443 44.5133C8.25358 45.2969 9.39627 45.6886 10.5392 45.5988L16.3193 45.1422V47.327C16.3193 47.7682 16.6761 48.1251 17.1173 48.1251C17.5585 48.1251 17.9154 47.7682 17.9154 47.327V44.2785C17.9154 44.0527 17.821 43.846 17.6622 43.6966C17.5047 43.5483 17.2797 43.4611 17.0569 43.489L10.4244 44.0193L10.4236 44.0194C9.72316 44.0796 9.02901 43.8388 8.4998 43.3551C7.97148 42.8642 7.68507 42.2009 7.68507 41.4834V34.2858C7.68507 33.8446 7.32821 33.4877 6.88702 33.4877H3.22882C2.89768 33.4877 2.5936 33.3334 2.3866 33.0627C2.18902 32.794 2.13273 32.4556 2.23172 32.1375L2.11236 32.1003L2.23172 32.1375L6.23733 19.2577C6.26706 19.1766 6.27562 19.0907 6.27563 19.0196C6.28349 9.3412 14.1537 1.47109 23.824 1.47109H24.1962C33.8665 1.47109 41.7366 9.34123 41.7366 19.0116V25.8608C41.7366 31.4266 40.6472 36.858 38.5077 41.9975L38.5077 41.9976L37.6842 43.9771L37.6835 43.9787C37.6453 44.0742 37.6271 44.1773 37.6271 44.2864V47.3349C37.6271 47.7761 37.9839 48.133 38.4251 48.133C38.8663 48.133 39.2232 47.7761 39.2232 47.3349V44.4462L39.9894 42.6165L39.9895 42.6163C42.213 37.28 43.3406 31.6497 43.3406 25.8687V19.0195V19.0193C43.3247 8.45888 34.741 -0.125 24.1882 -0.125H23.8161C13.3094 -0.125 4.75341 8.39298 4.68757 18.8893L0.710268 31.6593Z" fill="#71976B" stroke="#71976B" stroke-width="0.25"/>
</svg>
