<svg width="48" height="48" viewBox="0 0 48 48" fill="none" xmlns="http://www.w3.org/2000/svg">
<path d="M41.6 42.7583C45.1337 42.7583 48 39.7153 48 35.9853C48 33.6294 46.8417 31.4699 44.9767 30.2331C44.4074 27.0724 41.7767 24.7558 38.6945 24.7558C35.6123 24.7558 32.9816 27.0724 32.4123 30.2331C30.5276 31.4699 29.389 33.6294 29.389 35.9853C29.389 39.7153 32.2552 42.7583 35.789 42.7583H37.7718V46.1546H23.4012C22.8712 45.762 21.3202 44.3288 21.3202 40.7951V32.9031H21.3399C25.0503 32.9031 28.1521 30.2724 28.7804 26.6798C31.6074 25.5215 33.4724 22.773 33.4724 19.6712C33.4724 17.6687 32.6871 15.7644 31.2932 14.3509C31.9607 13.1926 32.3141 11.8969 32.3141 10.5423C32.3141 6.36074 28.9178 2.98405 24.7558 2.98405C24.1865 2.98405 23.6368 3.04294 23.0871 3.18037C21.5951 1.17791 19.2785 0 16.746 0C14.2135 0 11.8969 1.17791 10.4049 3.2C9.85521 3.08221 9.30552 3.00368 8.7362 3.00368C4.5546 3.00368 1.17791 6.4 1.17791 10.562C1.17791 11.9166 1.53129 13.2123 2.19877 14.3706C0.785276 15.784 0 17.6687 0 19.6908C0 22.7926 1.86503 25.5411 4.69202 26.6994C5.33988 30.292 8.44172 32.9227 12.1325 32.9227H12.1718V40.8147C12.1718 44.3485 10.6012 45.7816 10.0908 46.1742H0.922699C0.41227 46.1742 0 46.5865 0 47.0969C0 47.6074 0.41227 48.0196 0.922699 48.0196H47.0773C47.5877 48.0196 48 47.6074 48 47.0969C48 46.5865 47.5877 46.1742 47.0773 46.1742H39.5975V42.7779H41.6V42.7583ZM35.7693 40.9129C33.2564 40.9129 31.2147 38.7141 31.2147 35.9853C31.2147 34.1399 32.1571 32.4515 33.6883 31.6074C33.9436 31.4699 34.1202 31.1951 34.1595 30.9006C34.4344 28.4466 36.3779 26.6012 38.6748 26.6012C40.9718 26.6012 42.9153 28.4466 43.1902 30.9006C43.2294 31.1951 43.4061 31.4503 43.6613 31.6074C45.1926 32.4515 46.135 34.1399 46.135 35.9853C46.135 38.6945 44.0933 40.9129 41.5804 40.9129H39.5975V38.5963L42.4442 35.7497C42.7975 35.3963 42.7975 34.8074 42.4442 34.454C42.0908 34.1006 41.5018 34.1006 41.1485 34.454L39.6172 35.9853V32C39.6172 31.4896 39.2049 31.0773 38.6945 31.0773C38.184 31.0773 37.7718 31.4896 37.7718 32V35.9853L36.2405 34.454C35.8871 34.1006 35.2982 34.1006 34.9448 34.454C34.5914 34.8074 34.5914 35.3963 34.9448 35.7497L37.7914 38.5963V40.9129H35.7693ZM6.4589 25.9141C6.41963 25.5411 6.16442 25.2466 5.83067 25.1288C3.45521 24.3632 1.86503 22.184 1.86503 19.6908C1.86503 17.9632 2.65031 16.3337 3.98528 15.2344C4.37791 14.9202 4.43681 14.3706 4.14233 13.9583C3.41595 12.9767 3.02331 11.7988 3.02331 10.562C3.02331 7.40123 5.59509 4.84908 8.7362 4.84908C9.34478 4.84908 9.93374 4.94724 10.5227 5.12393C10.935 5.26135 11.3669 5.08466 11.6025 4.73129C12.7018 2.92515 14.6258 1.8454 16.746 1.8454C18.8663 1.8454 20.7902 2.92515 21.8896 4.73129C22.1055 5.10429 22.5571 5.26135 22.9693 5.12393C23.5387 4.92761 24.1472 4.84908 24.7558 4.84908C27.9166 4.84908 30.4687 7.42086 30.4687 10.562C30.4687 11.7988 30.0761 12.9767 29.3497 13.9583C29.0552 14.3509 29.1337 14.9202 29.5067 15.2344C30.8613 16.3337 31.627 17.9436 31.627 19.6908C31.627 22.184 30.0368 24.3828 27.6613 25.1288C27.308 25.2466 27.0528 25.5411 27.0331 25.9141C26.7386 28.8393 24.2847 31.0577 21.3399 31.0577H17.6687V28.6626L23.7742 22.5571C24.1276 22.2037 24.1276 21.6147 23.7742 21.2614C23.4209 20.908 22.8319 20.908 22.4785 21.2614L17.6687 26.0515V20.0245L22.0663 15.627C22.4196 15.2736 22.4196 14.6847 22.0663 14.3313C21.7129 13.9779 21.1239 13.9779 20.7706 14.3313L17.6687 17.4135V11.6025C17.6687 11.092 17.2564 10.6798 16.746 10.6798C16.2356 10.6798 15.8233 11.092 15.8233 11.6025V17.4135L12.7215 14.3313C12.3681 13.9779 11.7791 13.9779 11.4258 14.3313C11.0724 14.6847 11.0724 15.2736 11.4258 15.627L15.8233 20.0245V26.0515L11.0331 21.2614C10.6798 20.908 10.0908 20.908 9.73742 21.2614C9.38405 21.6147 9.38405 22.2037 9.73742 22.5571L15.8233 28.6626V31.0773H12.1325C9.18773 31.0577 6.75337 28.8589 6.4589 25.9141ZM14.0172 40.7951V32.9031H19.4552V40.7951C19.4552 43.3276 20.162 45.0552 20.908 46.1546H12.5644C13.3104 45.0552 14.0172 43.3276 14.0172 40.7951Z" fill="#71976B"/>
<path d="M0.230469 1.63312C0.230469 2.39877 0.858687 3.02699 1.62433 3.02699C2.38997 3.02699 3.01818 2.39877 3.01818 1.63312C3.01818 0.867478 2.38997 0.239258 1.62433 0.239258C0.858687 0.25889 0.230469 0.867478 0.230469 1.63312Z" fill="#71976B"/>
</svg>
